<svg width="42" height="42" viewBox="0 0 42 42" fill="none" xmlns="http://www.w3.org/2000/svg">
<path d="M21.25 3L15.775 8.475H8.475V15.775L3 21.25L8.475 26.725V34.025H15.775L21.25 39.5L26.725 34.025H34.025V26.725L39.5 21.25L34.025 15.775V8.475H26.725L21.25 3Z" stroke="white" stroke-width="4" stroke-linejoin="round"/>
<path d="M21.25 26.725C22.7021 26.725 24.0946 26.1482 25.1214 25.1214C26.1482 24.0947 26.725 22.7021 26.725 21.25C26.725 19.798 26.1482 18.4054 25.1214 17.3786C24.0946 16.3519 22.7021 15.775 21.25 15.775C19.7979 15.775 18.4054 16.3519 17.3786 17.3786C16.3518 18.4054 15.775 19.798 15.775 21.25C15.775 22.7021 16.3518 24.0947 17.3786 25.1214C18.4054 26.1482 19.7979 26.725 21.25 26.725Z" stroke="white" stroke-width="4" stroke-linejoin="round"/>
</svg>
