<svg width="120" height="122" viewBox="0 0 120 122" fill="none" xmlns="http://www.w3.org/2000/svg">
<path fill-rule="evenodd" clip-rule="evenodd" d="M63.5638 117.683L63.4918 117.695L63.0658 117.905L62.9458 117.929L62.8618 117.905L62.4358 117.689C62.3718 117.673 62.3238 117.685 62.2918 117.725L62.2678 117.785L62.1658 120.353L62.1958 120.473L62.2558 120.551L62.8798 120.995L62.9698 121.019L63.0418 120.995L63.6658 120.551L63.7378 120.455L63.7618 120.353L63.6598 117.791C63.6438 117.727 63.6118 117.691 63.5638 117.683ZM65.1478 117.005L65.0638 117.017L63.9598 117.575L63.8998 117.635L63.8818 117.701L63.9898 120.281L64.0198 120.353L64.0678 120.401L65.2738 120.953C65.3498 120.973 65.4078 120.957 65.4478 120.905L65.4718 120.821L65.2678 117.137C65.2478 117.061 65.2078 117.017 65.1478 117.005ZM60.8578 117.017C60.8314 117.001 60.7998 116.996 60.7696 117.003C60.7394 117.01 60.713 117.028 60.6958 117.053L60.6598 117.137L60.4558 120.821C60.4598 120.893 60.4938 120.941 60.5578 120.965L60.6478 120.953L61.8538 120.395L61.9138 120.347L61.9318 120.281L62.0398 117.701L62.0218 117.629L61.9618 117.569L60.8578 117.017Z" fill="#2B3345"/>
<path fill-rule="evenodd" clip-rule="evenodd" d="M60 0C26.862 0 0 26.862 0 60C0 93.138 26.862 120 60 120C93.138 120 120 93.138 120 60C120 26.862 93.138 0 60 0ZM39 45C39 42.2422 39.5432 39.5115 40.5985 36.9636C41.6539 34.4158 43.2007 32.1008 45.1508 30.1508C47.1008 28.2007 49.4158 26.6539 51.9636 25.5985C54.5115 24.5432 57.2422 24 60 24C62.7578 24 65.4885 24.5432 68.0363 25.5985C70.5842 26.6539 72.8992 28.2007 74.8492 30.1508C76.7993 32.1008 78.3461 34.4158 79.4015 36.9636C80.4568 39.5115 81 42.2422 81 45C81 50.5695 78.7875 55.911 74.8492 59.8492C70.911 63.7875 65.5695 66 60 66C54.4305 66 49.089 63.7875 45.1508 59.8492C41.2125 55.911 39 50.5695 39 45ZM97.548 89.904C93.0551 95.5521 87.345 100.113 80.8436 103.246C74.3421 106.38 67.2171 108.005 60 108C52.7829 108.005 45.6579 106.38 39.1564 103.246C32.655 100.113 26.9449 95.5521 22.452 89.904C32.178 82.926 45.45 78 60 78C74.55 78 87.822 82.926 97.548 89.904Z" fill="#2B3345"/>
</svg>
