<svg width="42" height="28" viewBox="0 0 42 28" fill="none" xmlns="http://www.w3.org/2000/svg">
<path d="M0 0H41.6912V27.3913H0V0ZM20.8456 6.84783C22.6885 6.84783 24.4558 7.56929 25.7589 8.85351C27.062 10.1377 27.7941 11.8795 27.7941 13.6957C27.7941 15.5118 27.062 17.2536 25.7589 18.5378C24.4558 19.822 22.6885 20.5435 20.8456 20.5435C19.0027 20.5435 17.2353 19.822 15.9322 18.5378C14.6291 17.2536 13.8971 15.5118 13.8971 13.6957C13.8971 11.8795 14.6291 10.1377 15.9322 8.85351C17.2353 7.56929 19.0027 6.84783 20.8456 6.84783ZM9.26471 4.56522C9.26471 5.77599 8.77666 6.93717 7.90792 7.79331C7.03919 8.64946 5.86093 9.13043 4.63235 9.13043V18.2609C5.86093 18.2609 7.03919 18.7418 7.90792 19.598C8.77666 20.4541 9.26471 21.6153 9.26471 22.8261H32.4265C32.4265 21.6153 32.9145 20.4541 33.7833 19.598C34.652 18.7418 35.8302 18.2609 37.0588 18.2609V9.13043C35.8302 9.13043 34.652 8.64946 33.7833 7.79331C32.9145 6.93717 32.4265 5.77599 32.4265 4.56522H9.26471Z" fill="#2B3345"/>
</svg>
