<svg width="64" height="64" viewBox="0 0 64 64" fill="none" xmlns="http://www.w3.org/2000/svg">
<path d="M26.3333 41.3333L34.3333 44C34.3333 44 54.3333 40 57 40C59.6667 40 59.6667 42.6667 57 45.3333C54.3333 48 45 56 37 56C29 56 23.6667 52 18.3333 52H5" stroke="white" stroke-width="4" stroke-linecap="round" stroke-linejoin="round"/>
<path d="M5 36C7.66667 33.3333 13 29.3333 18.3333 29.3333C23.6667 29.3333 36.3333 34.6667 38.3333 37.3333C40.3333 40 34.3333 44 34.3333 44M21 21.3333V10.6667C21 9.95942 21.281 9.28115 21.781 8.78105C22.2811 8.28095 22.9594 8 23.6667 8H55.6667C56.3739 8 57.0522 8.28095 57.5523 8.78105C58.0524 9.28115 58.3333 9.95942 58.3333 10.6667V32" stroke="white" stroke-width="4" stroke-linecap="round" stroke-linejoin="round"/>
<path d="M33 8H46.3333V20H33V8Z" stroke="white" stroke-width="4" stroke-linecap="round" stroke-linejoin="round"/>
</svg>
