<svg width="120" height="120" viewBox="0 0 120 120" fill="none" xmlns="http://www.w3.org/2000/svg">
<path d="M60 10L45 25H25V45L10 60L25 75V95H45L60 110L75 95H95V75L110 60L95 45V25H75L60 10Z" stroke="#202635" stroke-width="4" stroke-linejoin="round"/>
<path d="M60 75C63.9782 75 67.7936 73.4196 70.6066 70.6066C73.4196 67.7936 75 63.9782 75 60C75 56.0218 73.4196 52.2064 70.6066 49.3934C67.7936 46.5804 63.9782 45 60 45C56.0218 45 52.2064 46.5804 49.3934 49.3934C46.5804 52.2064 45 56.0218 45 60C45 63.9782 46.5804 67.7936 49.3934 70.6066C52.2064 73.4196 56.0218 75 60 75Z" stroke="#202635" stroke-width="4" stroke-linejoin="round"/>
</svg>
