<svg width="42" height="42" viewBox="0 0 42 42" fill="none" xmlns="http://www.w3.org/2000/svg">
<g clip-path="url(#clip0_57_194)">
<path d="M7.875 40.6875H15.75C16.0981 40.6875 16.4319 40.5492 16.6781 40.3031C16.9242 40.0569 17.0625 39.7231 17.0625 39.375V28.875C17.0625 28.5269 17.2008 28.1931 17.4469 27.9469C17.6931 27.7008 18.0269 27.5625 18.375 27.5625H23.625C23.9731 27.5625 24.3069 27.7008 24.5531 27.9469C24.7992 28.1931 24.9375 28.5269 24.9375 28.875V39.375C24.9375 39.7231 25.0758 40.0569 25.3219 40.3031C25.5681 40.5492 25.9019 40.6875 26.25 40.6875H34.125C34.4731 40.6875 34.8069 40.5492 35.0531 40.3031C35.2992 40.0569 35.4375 39.7231 35.4375 39.375V22.3125H39.2516C39.5148 22.3349 39.7787 22.277 40.0082 22.1462C40.2378 22.0155 40.4222 21.8181 40.5372 21.5802C40.6521 21.3424 40.6922 21.0752 40.652 20.8141C40.6118 20.553 40.4933 20.3103 40.3121 20.118L21.9292 1.71674C21.8073 1.59451 21.6625 1.49754 21.503 1.43137C21.3436 1.36521 21.1726 1.33115 21 1.33115C20.8274 1.33115 20.6564 1.36521 20.497 1.43137C20.3375 1.49754 20.1927 1.59451 20.0707 1.71674L1.68787 20.118C1.50672 20.3103 1.38822 20.553 1.34803 20.8141C1.30785 21.0752 1.34787 21.3424 1.46282 21.5802C1.57777 21.8181 1.76222 22.0155 1.99177 22.1462C2.22132 22.277 2.48515 22.3349 2.74837 22.3125H6.5625V39.375C6.5625 39.7231 6.70078 40.0569 6.94692 40.3031C7.19306 40.5492 7.5269 40.6875 7.875 40.6875Z" stroke="white" stroke-width="4"/>
</g>
<defs>
<clipPath id="clip0_57_194">
<rect width="42" height="42" fill="white"/>
</clipPath>
</defs>
</svg>
