<svg width="120" height="120" viewBox="0 0 120 120" fill="none" xmlns="http://www.w3.org/2000/svg">
<g clip-path="url(#clip0_238_308)">
<path d="M34.509 77.7143H19.2084C10.9461 77.7143 3.7038 71.3143 2.68376 63.1873L0.13366 48C-0.427362 43.6825 0.796686 39.619 3.44879 36.673C6.10089 33.727 9.97704 32 14.1082 32H44.7094C48.9426 32 52.7677 33.7778 55.2158 36.8762C55.7768 37.6381 56.2868 38.4508 56.6949 39.3651C58.888 38.9079 61.132 38.9079 63.2741 39.3651C63.6821 38.4508 64.1922 37.6381 64.8042 36.8762C67.2013 33.7778 71.0264 32 75.3106 32H105.912C110.043 32 113.919 33.727 116.571 36.673C119.172 39.619 120.396 43.6825 119.886 47.7968L117.285 63.3905C116.316 71.3143 109.023 77.7143 100.812 77.7143H85.511C77.5547 77.7143 69.8024 71.6698 67.8643 64L63.2741 50.2349C61.336 48.8127 58.6329 48.8127 56.6949 50.2349L52.0027 64.3556C50.1666 71.7206 42.4653 77.7143 34.509 77.7143Z" fill="#202635"/>
</g>
<defs>
<clipPath id="clip0_238_308">
<rect width="120" height="120" fill="white"/>
</clipPath>
</defs>
</svg>
