<svg width="42" height="42" viewBox="0 0 42 42" fill="none" xmlns="http://www.w3.org/2000/svg">
<path d="M9.5464 25.9991C8.02728 25.9991 6.57038 26.6311 5.4962 27.756C4.42203 28.881 3.81856 30.4067 3.81856 31.9977C3.81856 33.5886 4.42203 35.1143 5.4962 36.2393C6.57038 37.3643 8.02728 37.9962 9.5464 37.9962C11.0655 37.9962 12.5224 37.3643 13.5966 36.2393C14.6708 35.1143 15.2742 33.5886 15.2742 31.9977C15.2742 30.4067 14.6708 28.881 13.5966 27.756C12.5224 26.6311 11.0655 25.9991 9.5464 25.9991ZM0 31.9977C0.000189894 30.0995 0.516349 28.2406 1.48813 26.6384C2.45991 25.0361 3.84715 23.7567 5.48767 22.9496C7.12818 22.1426 8.95416 21.8414 10.7521 22.0811C12.5501 22.3209 14.2457 23.0917 15.6408 24.3035C17.0695 22.8278 18.9954 22.0004 21.0021 22C23.0927 22 24.9848 22.8798 26.3633 24.3035C28.1837 22.7241 30.4989 21.9082 32.8606 22.0138C35.2224 22.1193 37.4628 23.1388 39.148 24.8749C40.8333 26.6109 41.8436 28.94 41.9833 31.4114C42.123 33.8827 41.3823 36.3204 39.9044 38.2526C38.4265 40.1848 36.3167 41.4741 33.9833 41.8708C31.65 42.2675 29.259 41.7434 27.2734 40.4001C25.2878 39.0567 23.8487 36.9896 23.2348 34.5989C22.6208 32.2082 22.8757 29.6639 23.95 27.4587C23.592 27.0026 23.142 26.6352 22.6323 26.3828C22.1226 26.1304 21.5659 25.9994 21.0021 25.9991C19.8183 25.9991 18.7549 26.5649 18.0541 27.4587C18.7087 28.8054 19.0632 30.2899 19.091 31.8007C19.1189 33.3115 18.8194 34.8093 18.215 36.1814C17.6106 37.5535 16.7171 38.7643 15.6017 39.7228C14.4862 40.6813 13.1778 41.3625 11.7748 41.7152C10.3718 42.0679 8.91067 42.083 7.5013 41.7593C6.09192 41.4356 4.77095 40.7815 3.63767 39.8462C2.50439 38.911 1.5883 37.7188 0.95824 36.3594C0.328185 35 0.000562096 33.5087 0 31.9977ZM32.4578 25.9991C31.7053 25.998 30.96 26.1524 30.2646 26.4535C29.5692 26.7546 28.9374 27.1964 28.4053 27.7537C27.8732 28.3109 27.4514 28.9726 27.1639 29.7008C26.8764 30.4291 26.7289 31.2096 26.7299 31.9977C26.7299 33.1841 27.0658 34.3438 27.6952 35.3303C28.3246 36.3168 29.2192 37.0856 30.2658 37.5396C31.3124 37.9937 32.4641 38.1124 33.5752 37.881C34.6863 37.6495 35.7069 37.0782 36.5079 36.2393C37.309 35.4004 37.8545 34.3315 38.0755 33.1679C38.2965 32.0043 38.1831 30.7982 37.7496 29.7021C37.3161 28.606 36.5819 27.6691 35.64 27.01C34.698 26.3509 33.5906 25.9991 32.4578 25.9991Z" fill="white"/>
</svg>
