<svg width="42" height="20" viewBox="0 0 42 20" fill="none" xmlns="http://www.w3.org/2000/svg">
<path d="M9.5464 3.99906C8.02728 3.99906 6.57038 4.63105 5.4962 5.75601C4.42203 6.88096 3.81856 8.40673 3.81856 9.99766C3.81856 11.5886 4.42203 13.1143 5.4962 14.2393C6.57038 15.3643 8.02728 15.9962 9.5464 15.9962C11.0655 15.9962 12.5224 15.3643 13.5966 14.2393C14.6708 13.1143 15.2742 11.5886 15.2742 9.99766C15.2742 8.40673 14.6708 6.88096 13.5966 5.75601C12.5224 4.63105 11.0655 3.99906 9.5464 3.99906ZM0 9.99766C0.000189894 8.0995 0.516349 6.24062 1.48813 4.63835C2.45991 3.03609 3.84715 1.75665 5.48767 0.949635C7.12818 0.142617 8.95416 -0.15863 10.7521 0.081111C12.5501 0.320852 14.2457 1.09168 15.6408 2.30346C17.0695 0.827832 18.9954 0.000377178 21.0021 0C23.0927 0 24.9848 0.879795 26.3633 2.30346C28.1837 0.724084 30.4989 -0.0918026 32.8606 0.0137526C35.2224 0.119308 37.4628 1.1388 39.148 2.87485C40.8333 4.61091 41.8436 6.94005 41.9833 9.41137C42.123 11.8827 41.3823 14.3204 39.9044 16.2526C38.4265 18.1848 36.3167 19.4741 33.9833 19.8708C31.65 20.2675 29.259 19.7434 27.2734 18.4001C25.2878 17.0567 23.8487 14.9896 23.2348 12.5989C22.6208 10.2082 22.8757 7.66394 23.95 5.45872C23.592 5.0026 23.142 4.63516 22.6323 4.38278C22.1226 4.13041 21.5659 3.99936 21.0021 3.99906C19.8183 3.99906 18.7549 4.56493 18.0541 5.45872C18.7087 6.80539 19.0632 8.28992 19.091 9.80071C19.1189 11.3115 18.8194 12.8093 18.215 14.1814C17.6106 15.5535 16.7171 16.7643 15.6017 17.7228C14.4862 18.6813 13.1778 19.3625 11.7748 19.7152C10.3718 20.0679 8.91067 20.083 7.5013 19.7593C6.09192 19.4356 4.77095 18.7815 3.63767 17.8462C2.50439 16.911 1.5883 15.7188 0.95824 14.3594C0.328185 13 0.000562096 11.5087 0 9.99766ZM32.4578 3.99906C31.7053 3.99801 30.96 4.15245 30.2646 4.45353C29.5692 4.75462 28.9374 5.19643 28.4053 5.75366C27.8732 6.31089 27.4514 6.97259 27.1639 7.70085C26.8764 8.42911 26.7289 9.20961 26.7299 9.99766C26.7299 11.1841 27.0658 12.3438 27.6952 13.3303C28.3246 14.3168 29.2192 15.0856 30.2658 15.5396C31.3124 15.9937 32.4641 16.1124 33.5752 15.881C34.6863 15.6495 35.7069 15.0782 36.5079 14.2393C37.309 13.4004 37.8545 12.3315 38.0755 11.1679C38.2965 10.0043 38.1831 8.79819 37.7496 7.70209C37.3161 6.60599 36.5819 5.66914 35.64 5.01001C34.698 4.35087 33.5906 3.99906 32.4578 3.99906Z" fill="white"/>
</svg>
