<svg width="39" height="42" viewBox="0 0 39 42" fill="none" xmlns="http://www.w3.org/2000/svg">
<path d="M4.2 0H23.1C24.2139 0 25.2822 0.442499 26.0698 1.23015C26.8575 2.0178 27.3 3.08609 27.3 4.2V8.4H23.1V4.2H4.2V37.8H23.1V33.6H27.3V37.8C27.3 38.9139 26.8575 39.9822 26.0698 40.7698C25.2822 41.5575 24.2139 42 23.1 42H4.2C3.08609 42 2.0178 41.5575 1.23015 40.7698C0.442499 39.9822 0 38.9139 0 37.8V4.2C0 3.08609 0.442499 2.0178 1.23015 1.23015C2.0178 0.442499 3.08609 0 4.2 0Z" fill="white"/>
<path d="M25.389 28.539L28.35 31.5L38.85 21L28.35 10.5L25.389 13.461L30.807 18.9H10.5V23.1H30.807L25.389 28.539Z" fill="white"/>
</svg>
