<svg width="42" height="42" viewBox="0 0 42 42" fill="none" xmlns="http://www.w3.org/2000/svg">
<g clip-path="url(#clip0_57_198)">
<path d="M2 48C2 43.1503 3.9491 38.4993 7.41852 35.07C10.8879 31.6408 15.5935 29.7143 20.5 29.7143C25.4065 29.7143 30.1121 31.6408 33.5815 35.07C37.0509 38.4993 39 43.1503 39 48H34.375C34.375 44.3627 32.9132 40.8745 30.3111 38.3025C27.709 35.7306 24.1799 34.2857 20.5 34.2857C16.8201 34.2857 13.291 35.7306 10.6889 38.3025C8.08683 40.8745 6.625 44.3627 6.625 48H2ZM20.5 27.4286C12.8341 27.4286 6.625 21.2914 6.625 13.7143C6.625 6.13714 12.8341 0 20.5 0C28.1659 0 34.375 6.13714 34.375 13.7143C34.375 21.2914 28.1659 27.4286 20.5 27.4286ZM20.5 22.8571C25.6106 22.8571 29.75 18.7657 29.75 13.7143C29.75 8.66286 25.6106 4.57143 20.5 4.57143C15.3894 4.57143 11.25 8.66286 11.25 13.7143C11.25 18.7657 15.3894 22.8571 20.5 22.8571Z" fill="white"/>
</g>
<defs>
<clipPath id="clip0_57_198">
<rect width="42" height="42" fill="white"/>
</clipPath>
</defs>
</svg>
