<svg width="42" height="42" viewBox="0 0 42 42" fill="none" xmlns="http://www.w3.org/2000/svg">
<path d="M1.75 3.5H7L12.25 22.75M12.25 22.75L10.5 29.75H36.75M12.25 22.75H33.25L38.5 7H7.95375L12.25 22.75ZM12.25 36.75C12.25 37.2141 12.0656 37.6592 11.7374 37.9874C11.4092 38.3156 10.9641 38.5 10.5 38.5C10.0359 38.5 9.59075 38.3156 9.26256 37.9874C8.93437 37.6592 8.75 37.2141 8.75 36.75C8.75 36.2859 8.93437 35.8408 9.26256 35.5126C9.59075 35.1844 10.0359 35 10.5 35C10.9641 35 11.4092 35.1844 11.7374 35.5126C12.0656 35.8408 12.25 36.2859 12.25 36.75ZM36.75 36.75C36.75 37.2141 36.5656 37.6592 36.2374 37.9874C35.9092 38.3156 35.4641 38.5 35 38.5C34.5359 38.5 34.0908 38.3156 33.7626 37.9874C33.4344 37.6592 33.25 37.2141 33.25 36.75C33.25 36.2859 33.4344 35.8408 33.7626 35.5126C34.0908 35.1844 34.5359 35 35 35C35.4641 35 35.9092 35.1844 36.2374 35.5126C36.5656 35.8408 36.75 36.2859 36.75 36.75Z" stroke="white" stroke-width="2" stroke-linecap="square"/>
</svg>
