<svg width="42" height="42" viewBox="0 0 42 42" fill="none" xmlns="http://www.w3.org/2000/svg">
<path d="M18.7796 35.5796C18.2545 36.1045 17.5425 36.3994 16.8 36.3994C16.0575 36.3994 15.3455 36.1045 14.8204 35.5796L2.22041 22.9796C1.69549 22.4545 1.4006 21.7425 1.4006 21C1.4006 20.2575 1.69549 19.5455 2.22041 19.0204L14.8204 6.4204C15.3485 5.91035 16.0558 5.62813 16.7899 5.63451C17.5241 5.64089 18.2264 5.93536 18.7455 6.45451C19.2646 6.97365 19.5591 7.67592 19.5655 8.41007C19.5719 9.14423 19.2896 9.85151 18.7796 10.3796L11.2 18.2H37.8C38.5426 18.2 39.2548 18.495 39.7799 19.0201C40.305 19.5452 40.6 20.2574 40.6 21C40.6 21.7426 40.305 22.4548 39.7799 22.9799C39.2548 23.505 38.5426 23.8 37.8 23.8H11.2L18.7796 31.6204C19.3045 32.1455 19.5994 32.8575 19.5994 33.6C19.5994 34.3425 19.3045 35.0545 18.7796 35.5796Z" fill="#2B3345"/>
</svg>
